<svg width="1141" height="1141" viewBox="0 0 1141 1141" fill="none" xmlns="http://www.w3.org/2000/svg">
<path d="M1074 637C1074 915.352 848.352 1141 570 1141C291.648 1141 66 915.352 66 637C66 358.648 159.148 0.5 437.5 0.5C715.852 0.5 1074 358.648 1074 637Z" fill="#202020"/>
<path d="M961 637C961 852.943 785.943 1028 570 1028C354.057 1028 179 852.943 179 637C179 421.057 371.5 393 437.5 183C503.5 -27 961 421.057 961 637Z" fill="#181818"/>
<path d="M814 637C814 502.243 704.757 393 570 393C435.243 393 326 502.243 326 637C326 771.757 435.243 881 570 881C704.757 881 814 771.757 814 637Z" fill="#B392BD"/>
</svg>
